<?xml version="1.0" encoding="UTF-8"?>
<svg width="116px" height="78px" viewBox="0 0 116 78" version="1.1" xmlns="http://www.w3.org/2000/svg" xmlns:xlink="http://www.w3.org/1999/xlink">
    <title>401713C5-CC77-4498-BDFC-70276C6ED5D6</title>
    <g id="SEM-UK" stroke="none" stroke-width="1" fill="none" fill-rule="evenodd">
        <g id="JT-LC-SEM1" transform="translate(-150.000000, -2255.000000)">
            <g id="Group-28" transform="translate(150.000000, 2228.000000)">
                <g id="Group-36" transform="translate(0.000000, 27.000000)">
                    <g id="Group-32">
                        <path d="M84.3016112,3 L84.3016112,60.125 C84.3016112,61.7818542 82.9584655,63.125 81.3016112,63.125 L10.1312541,63.125 C8.47439987,63.125 7.13125412,61.7818542 7.13125412,60.125 L7.13125412,40.875 C7.13125412,39.2181458 8.47439987,37.875 10.1312541,37.875 L32.8547065,37.875 L32.8547065,37.875 L32.8547065,19.8333333 C32.8547065,18.1764791 34.1978522,16.8333333 35.8547065,16.8333333 L58.5781589,16.8333333 L58.5781589,16.8333333 L58.5781589,3 C58.5781589,1.34314575 59.9213046,7.48448398e-16 61.5781589,0 L81.3016112,0 C82.9584655,6.60946255e-15 84.3016112,1.34314575 84.3016112,3 Z" id="Path-6" fill="#006370"></path>
                        <path d="M77.1703571,10 L77.1703571,67.125 C77.1703571,68.7818542 75.8272114,70.125 74.1703571,70.125 L3,70.125 C1.34314575,70.125 2.02906125e-16,68.7818542 0,67.125 L0,47.875 C-2.02906125e-16,46.2181458 1.34314575,44.875 3,44.875 L25.7234524,44.875 L25.7234524,44.875 L25.7234524,26.8333333 C25.7234524,25.1764791 27.0665981,23.8333333 28.7234524,23.8333333 L51.4469047,23.8333333 L51.4469047,23.8333333 L51.4469047,10 C51.4469047,8.34314575 52.7900505,7 54.4469047,7 L74.1703571,7 C75.8272114,7 77.1703571,8.34314575 77.1703571,10 Z" id="Path-6-Copy" fill="#B1CFD3"></path>
                    </g>
                    <path d="M107.147149,37.0033468 C108.614052,36.953695 110.098895,37.4559725 111.256128,38.5161773 C112.42844,39.5901966 113.042793,41.0299944 113.093978,42.487038 C113.145209,43.9454107 112.63248,45.4244579 111.537408,46.5761543 L111.537408,46.5761543 L85.264401,74.2076975 C84.2155131,75.3108217 82.8178581,75.9131959 81.3889411,75.9912907 C79.9620076,76.0692772 78.5066045,75.6241599 77.3409289,74.6433993 L77.3409289,74.6433993 L64.2044252,63.590782 C62.9875847,62.5669729 62.3123671,61.1546897 62.1985235,59.7019628 C62.0844493,58.2462926 62.5335073,56.746671 63.5784488,55.5500107 C64.6100203,54.3686615 66.0305867,53.7061324 67.4961921,53.5954686 C68.9589417,53.4850203 70.4634992,53.9247247 71.6648587,54.9355087 L71.6648587,54.9355087 L80.6295891,62.4781346 L103.150898,38.7922845 C104.231848,37.6554399 105.678957,37.0530423 107.147149,37.0033468 Z" id="Path-92" stroke="#FFA019" stroke-width="4" fill="#FFA019"></path>
                </g>
            </g>
        </g>
    </g>
</svg>