<?xml version="1.0" encoding="UTF-8"?>
<svg width="102px" height="89px" viewBox="0 0 102 89" version="1.1" xmlns="http://www.w3.org/2000/svg" xmlns:xlink="http://www.w3.org/1999/xlink">
    <title>6B51332D-73A6-4769-AC50-DEDA0A212B89</title>
    <g id="SEM-UK" stroke="none" stroke-width="1" fill="none" fill-rule="evenodd">
        <g id="JT-LC-SEM1" transform="translate(-775.000000, -2262.000000)">
            <g id="Group-28" transform="translate(150.000000, 2228.000000)">
                <g id="Group-17" transform="translate(625.548727, 34.000000)">
                    <rect id="Rectangle-7-Copy" fill="#B1CFD3" x="23.470614" y="1.18383468e-06" width="48.9821489" height="14.8960906" rx="2.4000001"></rect>
                    <rect id="Rectangle-7-Copy-3" fill="#B1CFD3" x="23.470614" y="21.8972552" width="48.9821489" height="14.8960906" rx="2.4000001"></rect>
                    <rect id="Rectangle-7-Copy-4" fill="#B1CFD3" x="23.470614" y="43.7945092" width="48.9821489" height="14.8960906" rx="2.4000001"></rect>
                    <rect id="Rectangle-7-Copy-6" fill="#006370" x="0" y="43.695199" width="15.3069209" height="14.8960906" rx="2.4000001"></rect>
                    <rect id="Rectangle-7-Copy-7" fill="#006370" x="0" y="21.8475995" width="15.3069209" height="14.8960906" rx="2.4000001"></rect>
                    <rect id="Rectangle-7-Copy-8" fill="#006370" x="0" y="0" width="15.3069209" height="14.8960906" rx="2.4000001"></rect>
                    <path d="M63.2223261,87.537945 L64.6499367,40.8789631 C64.6689803,40.2565572 64.9177917,39.663242 65.3483928,39.213426 L72.0750674,32.186586 C73.0374813,31.181226 74.6326773,31.1464115 75.6380372,32.1088254 C75.6557598,32.125791 75.6732338,32.1430145 75.6904534,32.1604904 L82.0485206,38.6131746 C82.531787,39.1036326 82.79332,39.7704757 82.7723284,40.4587016 L81.3370949,87.5139606 C81.2959816,88.861894 80.2009763,89.9385589 78.8525408,89.9569007 L65.775422,90.1347796 C64.3837931,90.1537089 63.2403098,89.0409161 63.2213804,87.6492873 C63.2208756,87.6121707 63.2211908,87.5750476 63.2223261,87.537945 Z" id="Path-11" fill="#FFA019" transform="translate(72.973486, 60.241433) rotate(-135.000000) translate(-72.973486, -60.241433) "></path>
                </g>
            </g>
        </g>
    </g>
</svg>