<?xml version="1.0" encoding="UTF-8"?>
<svg width="103px" height="94px" viewBox="0 0 103 94" version="1.1" xmlns="http://www.w3.org/2000/svg" xmlns:xlink="http://www.w3.org/1999/xlink">
    <title>7303C82F-BFB3-48EF-9809-D4BAAB3BC4C3</title>
    <g id="SEM-UK" stroke="none" stroke-width="1" fill="none" fill-rule="evenodd">
        <g id="JT-LC-SEM1" transform="translate(-775.000000, -2515.000000)">
            <g id="Group-28" transform="translate(150.000000, 2228.000000)">
                <g id="Group-34" transform="translate(625.548727, 287.000000)">
                    <g id="Group-31">
                        <path d="M12.7913361,62.7844245 L79.1220231,62.7844245 C81.1102483,62.7844245 82.7220233,61.1726495 82.7220233,59.1844243 L82.7220233,14.6796045 C82.7220233,12.6913793 81.1102483,11.0796043 79.1220231,11.0796043 L39.4206197,11.0796043 L39.4206197,11.0796043 L29.1338362,1.02546903 C28.4612256,0.368070328 27.5580514,-2.25599494e-16 26.6175313,0 L12.7913361,0 C10.8031109,3.6523104e-16 9.19133592,1.61177496 9.19133592,3.60000014 L9.19133592,59.1844243 C9.19133592,61.1726495 10.8031109,62.7844245 12.7913361,62.7844245 Z" id="Combined-Shape-Copy-2" fill="#006370"></path>
                        <path d="M3.60000014,69.7715621 L71.9732093,69.7715621 C73.9614345,69.7715621 75.5732094,68.1597871 75.5732094,66.1715619 L75.5732094,21.666742 C75.5732094,19.6785169 73.9614345,18.0667419 71.9732093,18.0667419 L30.2292838,18.0667419 L30.2292838,18.0667419 L19.9425003,8.01260661 C19.2698897,7.35520791 18.3667155,6.98713758 17.4261953,6.98713758 L3.60000014,6.98713758 C1.61177496,6.98713758 6.4469106e-16,8.59891255 0,10.5871377 L0,66.1715619 C-2.40013161e-15,68.1597871 1.61177496,69.7715621 3.60000014,69.7715621 Z" id="Combined-Shape" fill="#B1CFD3"></path>
                    </g>
                    <path d="M100.886097,62.9890329 L83.3195895,62.9890329 L83.3195895,62.9890329 L83.3195895,48.1136381 C83.3195895,47.4508964 82.7823312,46.913638 82.1195894,46.913638 L71.038963,46.913638 C70.3762212,46.913638 69.8389629,47.4508964 69.8389629,48.1136381 L69.8389629,62.9890329 L69.8389629,62.9890329 L52.2724553,62.9890329 C51.6097135,62.9890329 51.0724552,63.5262912 51.0724552,64.1890329 C51.0724552,64.4808626 51.1788005,64.7626913 51.3715884,64.9817744 L75.6784094,92.6039056 C76.1162284,93.1014406 76.8744827,93.1498499 77.3720177,92.7120309 C77.4103215,92.6783245 77.4464366,92.6422094 77.480143,92.6039056 L101.786964,64.9817744 C102.224783,64.4842394 102.176374,63.7259851 101.678839,63.2881661 C101.459756,63.0953782 101.177927,62.9890329 100.886097,62.9890329 Z" id="Shape" fill="#FFA019"></path>
                </g>
            </g>
        </g>
    </g>
</svg>